 <svg size="20" width="21" height="21" fill="none" xmlns="http://www.w3.org/2000/svg"><path d="M14.557 11.234c.75 0 1.41-.419 1.75-1.052l3.58-6.628c.37-.674-.11-1.511-.87-1.511h-14.8L3.277 0H.007v2.043h2l3.6 7.751-1.35 2.492c-.73 1.369.23 3.033 1.75 3.033h12v-2.042h-12l1.1-2.043h7.45Zm-9.39-7.149h12.15l-2.76 5.106h-7.02l-2.37-5.106ZM6.007 16.34c-1.1 0-1.99.92-1.99 2.043 0 1.123.89 2.042 1.99 2.042s2-.919 2-2.042c0-1.123-.9-2.043-2-2.043ZM16.007 16.34c-1.1 0-1.99.92-1.99 2.043 0 1.123.89 2.042 1.99 2.042s2-.919 2-2.042c0-1.123-.9-2.043-2-2.043Z" fill="#000"></path></svg>