<svg size="26" width="79" height="26" fill="none" xmlns="http://www.w3.org/2000/svg"><path d="M7.333 23.096c-.41.458-.985.681-1.723.681-.54 0-1.008-.105-1.383-.305a2.79 2.79 0 0 1-.926-.845 3.951 3.951 0 0 1-.527-1.174 5.843 5.843 0 0 1-.153-1.361c0-.481.047-.95.153-1.408.117-.458.28-.857.527-1.21a2.38 2.38 0 0 1 .926-.844c.375-.211.844-.329 1.383-.329.293 0 .574.047.844.153.28.094.527.223.738.399.21.176.398.375.539.622.14.223.234.481.281.763h2.332a4.392 4.392 0 0 0-.527-1.702 4.016 4.016 0 0 0-1.066-1.232 4.494 4.494 0 0 0-1.442-.775 5.39 5.39 0 0 0-1.711-.258c-.844 0-1.594.152-2.274.446a4.836 4.836 0 0 0-1.687 1.232A5.566 5.566 0 0 0 .57 17.803c-.246.705-.363 1.467-.363 2.289 0 .81.117 1.56.363 2.253a5.271 5.271 0 0 0 1.067 1.808c.457.516 1.02.927 1.687 1.22.68.294 1.43.434 2.274.434.68 0 1.3-.105 1.863-.305a4.483 4.483 0 0 0 1.477-.892 4.488 4.488 0 0 0 1.02-1.42c.258-.551.41-1.185.48-1.866H8.106c-.094.716-.352 1.315-.773 1.772ZM3.863 8.391h1.829c1.605-.035 3.188-.106 4.172-1.55.445-.621.68-1.372.656-2.135a3.78 3.78 0 0 0-.61-2.183 2.996 2.996 0 0 0-.468-.552 4.174 4.174 0 0 0-2.871-.81H1.062v10.74h2.79V8.39h.011Zm0-5.281h1.758c.657 0 1.465 0 1.829.61.21.293.316.645.328 1.01.023.187 0 .387-.047.574a1.492 1.492 0 0 1-.27.505 1.64 1.64 0 0 1-.445.364c-.176.094-.363.14-.55.152a6.46 6.46 0 0 1-.95.07h-1.64V3.11h-.013Zm20.018 2.03c.293.552.656 1.15.95 1.702.292.551.62 1.103.984 1.655l2.05 3.403h2.708V1.15h-2.637l.105 6.912c-.504-.985-1.101-1.995-1.652-2.957L24.022 1.15h-2.684V11.9h2.648l-.105-6.76ZM72.213 9.8h-5.907V7.205h5.063v-2.03h-5.063v-1.96h5.392V1.15h-8.146V11.9h8.65V9.8h.011Zm-37.76 2.1h2.788V3.262h2.872V1.15h-8.52v2.112h2.847V11.9h.012ZM55.02 5.14c.34.552.657 1.15.95 1.702.304.551.668 1.103.996 1.655l2.05 3.403h2.72V1.15h-2.637l.105 6.912c-.516-.985-1.043-1.995-1.652-2.957l-2.38-3.955h-2.707V11.9h2.672l-.117-6.76ZM12.325 11.9l.551-1.702h4.067l.55 1.702h2.93L16.358 1.15h-2.86L9.395 11.912h2.93V11.9Zm2.016-6.314c.188-.61.375-1.256.516-1.89l1.465 4.542h-2.825c.305-.88.621-1.772.844-2.652Zm48.977 10.973h3.293v9.002h2.414v-9.002h3.294v-2.042h-9.001v2.042Zm13.02-12.933a.773.773 0 0 0 .235-.164c.059-.07.117-.153.152-.235a.791.791 0 0 0 .047-.282c0-.657-.422-.868-1.172-.868H74.57l-.012 2.84h.61V3.708h.316l.645 1.22h.668l-.727-1.255a.526.526 0 0 0 .27-.047Zm-.656-.364h-.504v-.704h.387c.234 0 .563 0 .563.329.011.317-.176.375-.446.375Zm2.461-.774a2.772 2.772 0 0 0-1.008-1.22 2.721 2.721 0 0 0-4.23 2.265c0 .539.164 1.067.457 1.513.304.446.726.798 1.219 1.01a2.663 2.663 0 0 0 1.57.152 2.672 2.672 0 0 0 1.395-.751c.375-.387.644-.869.75-1.397a2.692 2.692 0 0 0-.153-1.572Zm-.656 1.83c-.152.364-.41.67-.75.892a1.955 1.955 0 0 1-1.113.317c-.258 0-.516-.047-.762-.14a1.842 1.842 0 0 1-.645-.435 1.904 1.904 0 0 1-.55-1.408c0-.4.117-.786.34-1.115a1.993 1.993 0 0 1 2.062-.845c.387.082.738.27 1.02.552.28.281.468.645.539 1.032.058.388.011.787-.141 1.15Zm-57.18 11.62a4.696 4.696 0 0 0-1.688-1.233c-.668-.293-1.43-.446-2.274-.446-.844 0-1.594.153-2.274.446a4.84 4.84 0 0 0-1.687 1.232 5.57 5.57 0 0 0-1.067 1.855c-.246.704-.363 1.467-.363 2.288 0 .81.117 1.561.363 2.254a5.275 5.275 0 0 0 1.067 1.807c.457.516 1.02.927 1.687 1.22.68.294 1.43.435 2.274.435.856 0 1.606-.141 2.274-.434a4.808 4.808 0 0 0 1.687-1.221 5.463 5.463 0 0 0 1.067-1.807 6.78 6.78 0 0 0 .363-2.254c0-.821-.129-1.584-.363-2.288a5.774 5.774 0 0 0-1.067-1.855Zm-1.161 5.504a3.63 3.63 0 0 1-.504 1.173c-.234.352-.539.634-.926.845-.375.212-.844.305-1.383.305s-1.008-.105-1.383-.305a2.79 2.79 0 0 1-.925-.845 3.95 3.95 0 0 1-.528-1.173 5.84 5.84 0 0 1-.152-1.362c0-.481.047-.95.152-1.408.117-.458.281-.857.527-1.209a2.38 2.38 0 0 1 .926-.845c.375-.211.844-.329 1.383-.329.54 0 1.008.106 1.383.329.375.211.692.493.926.845.235.352.41.751.504 1.209.117.458.164.927.164 1.408.012.47-.047.916-.164 1.362Zm40.949 1.654c-.41.458-.984.681-1.723.681-.539 0-1.008-.105-1.383-.305a2.79 2.79 0 0 1-.926-.845 3.951 3.951 0 0 1-.527-1.174 5.842 5.842 0 0 1-.152-1.361c0-.481.046-.95.152-1.408.117-.458.281-.857.527-1.21a2.38 2.38 0 0 1 .926-.844c.375-.211.844-.329 1.383-.329.293 0 .574.047.844.153.281.094.527.223.738.399.211.176.399.375.54.622.14.223.234.481.28.763h2.333a4.391 4.391 0 0 0-.527-1.702 4.017 4.017 0 0 0-1.067-1.232 4.494 4.494 0 0 0-1.441-.775 5.39 5.39 0 0 0-1.712-.258c-.843 0-1.593.152-2.273.446a4.836 4.836 0 0 0-1.688 1.232 5.565 5.565 0 0 0-1.066 1.854c-.246.705-.364 1.467-.364 2.289 0 .81.117 1.56.364 2.253a5.27 5.27 0 0 0 1.066 1.808c.457.516 1.02.927 1.688 1.22.68.294 1.43.434 2.273.434.68 0 1.301-.105 1.864-.305a4.482 4.482 0 0 0 1.477-.892 4.488 4.488 0 0 0 1.02-1.42c.257-.551.41-1.185.48-1.866h-2.333c-.093.716-.351 1.315-.773 1.772ZM40.44 21.923h-.035l-4.583-7.406h-2.402v11.044h2.273v-7.394h.035l4.571 7.394h2.415V14.517h-2.262v7.406h-.012Zm-10.724 0h-.035L25.1 14.517h-2.403v11.044h2.262v-7.394h.035l4.57 7.394h2.415V14.517h-2.262v7.406Zm16.853-1.115h5.321v-1.89h-5.32v-2.37h5.8v-2.042h-8.215v11.043h8.333v-2.03H46.57v-2.711Zm2.473-9.694.012-.024a5.925 5.925 0 0 0 1.547-2.018 5.7 5.7 0 0 0 .539-2.488c0-1.585-.586-3.11-1.652-4.284a5.47 5.47 0 0 0-1.84-1.15 5.51 5.51 0 0 0-2.133-.352 5.089 5.089 0 0 0-2.485.54 4.978 4.978 0 0 0-1.91 1.678 6.312 6.312 0 0 0-1.032 3.474 6.143 6.143 0 0 0 1.582 4.213 5.49 5.49 0 0 0 1.794 1.162c.668.27 1.382.399 2.097.375a5.117 5.117 0 0 0 3.481-1.126Zm-4.465-1.362c-.328-.129-.61-.34-.856-.586a3.657 3.657 0 0 1-.726-1.28 3.831 3.831 0 0 1-.188-1.455c0-1.15.364-2.453 1.5-3.063.375-.2.797-.294 1.22-.294.41-.011.808.07 1.183.247a2.7 2.7 0 0 1 .95.751c.527.798.773 1.749.69 2.7l-.011-.012a3.12 3.12 0 0 1-.188 1.267c-.14.41-.363.775-.656 1.092-.246.258-.539.457-.867.598-.328.141-.68.211-1.031.211a2.208 2.208 0 0 1-1.02-.176Z" fill="#151C2C"></path></svg>