<svg size="20" width="22" height="22" fill="none" xmlns="http://www.w3.org/2000/svg"><path d="M11 .7C5.314.7.7 5.314.7 11c0 5.686 4.614 10.3 10.3 10.3 5.686 0 10.3-4.614 10.3-10.3C21.3 5.314 16.686.7 11 .7Zm7.95 5.912a8.883 8.883 0 0 1 1.091 3.775h-2.794a11.205 11.205 0 0 0-.866-3.775h2.57Zm-7.337-1.224V2.544a10.713 10.713 0 0 1 2.723 2.844h-2.723Zm-1.226 0H7.661a10.716 10.716 0 0 1 2.726-2.84v2.84Zm0 1.224v3.775H5.98c.078-1.321.422-2.594.98-3.775h3.427Zm0 5v3.775H6.96a10.247 10.247 0 0 1-.98-3.774h4.408Zm0 5v2.844a10.711 10.711 0 0 1-2.723-2.843h2.723Zm1.226 0h2.726a10.716 10.716 0 0 1-2.726 2.84v-2.84Zm0-1.224v-3.775h4.407a10.247 10.247 0 0 1-.98 3.774h-3.427Zm0-5V6.611h3.428c.557 1.181.902 2.454.98 3.775h-4.409Zm4.149-5a11.832 11.832 0 0 0-2.62-3.204 9.022 9.022 0 0 1 4.974 3.204h-2.354Zm-6.917-3.2a12.124 12.124 0 0 0-2.626 3.2H3.867a9.113 9.113 0 0 1 4.978-3.2Zm-6.886 8.2a8.666 8.666 0 0 1 1.109-3.776h2.577a11.53 11.53 0 0 0-.87 3.775H1.958Zm2.815 1.225c.07 1.302.362 2.586.866 3.774H3.068a8.666 8.666 0 0 1-1.11-3.774h2.816Zm4.071 8.2a9.113 9.113 0 0 1-4.978-3.2H6.22a12.118 12.118 0 0 0 2.626 3.2Zm6.936-3.2h2.352a9.112 9.112 0 0 1-4.991 3.203 12.173 12.173 0 0 0 2.639-3.203Zm4.277-5a8.906 8.906 0 0 1-1.126 3.774h-2.556c.492-1.186.8-2.469.87-3.774h2.812Z" fill="#000" stroke="#000" stroke-width=".6"></path></svg>